<svg width="38" height="29" viewBox="0 0 38 29" fill="none" xmlns="http://www.w3.org/2000/svg">
<path d="M3.54795 26.0857C1.40211 23.8066 0.250031 21.2503 0.250031 17.1066C0.250031 9.81488 5.36878 3.27947 12.8125 0.0482178L14.6729 2.91905C7.72503 6.67739 6.3667 11.5545 5.82503 14.6295C6.94378 14.0503 8.40836 13.8482 9.84378 13.9816C13.6021 14.3295 16.5646 17.4149 16.5646 21.2503C16.5646 23.1842 15.7964 25.0388 14.4289 26.4063C13.0615 27.7737 11.2068 28.542 9.27295 28.542C8.20348 28.5326 7.14656 28.3106 6.1637 27.889C5.18084 27.4673 4.29167 26.8543 3.54795 26.0857ZM24.3813 26.0857C22.2354 23.8066 21.0834 21.2503 21.0834 17.1066C21.0834 9.81488 26.2021 3.27947 33.6459 0.0482178L35.5063 2.91905C28.5584 6.67739 27.2 11.5545 26.6584 14.6295C27.7771 14.0503 29.2417 13.8482 30.6771 13.9816C34.4354 14.3295 37.3979 17.4149 37.3979 21.2503C37.3979 23.1842 36.6297 25.0388 35.2623 26.4063C33.8948 27.7737 32.0401 28.542 30.1063 28.542C29.0368 28.5326 27.9799 28.3106 26.997 27.889C26.0142 27.4673 25.125 26.8543 24.3813 26.0857Z" fill="#ECE1E0"/>
</svg>
